Coordinates
version=1
nRows=38
nColumns=12
inDegrees=yes

Units are S.I. units (second, meters, Newtons, ...)
Angles are in degrees

endheader
time	SC_y	SC_z	SC_x	AC_y	AC_z	AC_x	GH_y	GH_z	GH_yy	EL_x	PS_y
       0.0               -45.2          1.805          72.46          64.91          4.736          -8.14          145.3         0.9619         -46.03          12.22          50.15
   0.04017               -45.2          1.809          72.45          64.91          4.737          -8.14          145.2         0.9704         -46.04          12.23          50.16
   0.08034              -45.19          1.814          72.45          64.91          4.737          -8.14          145.2         0.9794         -46.06          12.23          50.17
    0.1205              -45.19          1.818          72.44          64.91          4.738         -8.139          145.2          0.989         -46.08          12.24          50.18
    0.1607              -45.19          1.823          72.43          64.91          4.738         -8.139          145.1         0.9992          -46.1          12.24           50.2
    0.2008              -45.19          1.828          72.42          64.91          4.739         -8.139          145.1           1.01         -46.12          12.25          50.21
     0.241              -45.19          1.834          72.41           64.9          4.739         -8.138          145.0          1.022         -46.14          12.26          50.22
    0.2812              -45.18           1.84           72.4           64.9           4.74         -8.138          145.0          1.034         -46.17          12.26          50.24
    0.3214              -45.18          1.846          72.39           64.9           4.74         -8.138          145.0          1.048          -46.2          12.27          50.25
    0.3615              -45.18          1.853          72.38           64.9          4.741         -8.137          144.9          1.062         -46.23          12.28          50.27
    0.4017              -45.18           1.86          72.36           64.9          4.741         -8.137          144.9          1.077         -46.26          12.29          50.29
    0.4419              -45.17          1.868          72.35           64.9          4.742         -8.136          144.8          1.094         -46.29           12.3          50.31
     0.482              -45.17          1.876          72.34          64.89          4.743         -8.136          144.7          1.111         -46.32          12.31          50.33
    0.5222              -45.17          1.886          72.32          64.89          4.744         -8.135          144.7          1.131         -46.36          12.32          50.36
    0.5624              -45.16          1.896           72.3          64.89          4.744         -8.135          144.6          1.151          -46.4          12.33          50.38
    0.6025              -45.16          1.906          72.28          64.89          4.745         -8.134          144.5          1.174         -46.45          12.34          50.41
    0.6427              -45.15          1.918          72.26          64.88          4.746         -8.134          144.4          1.199          -46.5          12.35          50.44
    0.6829              -45.15          1.931          72.24          64.88          4.748         -8.133          144.4          1.225         -46.55          12.37          50.47
    0.7231              -45.14          1.945          72.22          64.87          4.749         -8.132          144.3          1.254         -46.61          12.39          50.51
    0.7632              -45.14           1.96          72.19          64.87           4.75         -8.131          144.2          1.286         -46.67           12.4          50.54
    0.8034              -45.13          1.977          72.16          64.87          4.752          -8.13          144.0          1.321         -46.75          12.42          50.59
    0.8436              -45.12          1.995          72.13          64.86          4.753         -8.129          143.9           1.36         -46.82          12.44          50.63
    0.8837              -45.11          2.015          72.09          64.86          4.755         -8.128          143.8          1.403         -46.91          12.47          50.68
    0.9239              -45.11          2.038          72.05          64.85          4.757         -8.127          143.6           1.45          -47.0          12.49          50.74
    0.9641               -45.1          2.063          72.01          64.84          4.759         -8.125          143.4          1.502         -47.11          12.52          50.81
     1.004              -45.08          2.091          71.96          64.84          4.762         -8.123          143.2          1.561         -47.22          12.56          50.88
     1.044              -45.07          2.122           71.9          64.83          4.765         -8.122          143.0          1.627         -47.36          12.59          50.96
     1.085              -45.06          2.157          71.84          64.82          4.768          -8.12          142.7            1.7          -47.5          12.63          51.05
     1.125              -45.04          2.197          71.77          64.81          4.771         -8.117          142.5          1.784         -47.67          12.68          51.15
     1.165              -45.02          2.242          71.69           64.8          4.775         -8.115          142.1          1.879         -47.86          12.73          51.26
     1.205               -45.0          2.294           71.6          64.78           4.78         -8.112          141.8          1.987         -48.08          12.79          51.39
     1.245              -44.98          2.353           71.5          64.77          4.785         -8.108          141.4          2.111         -48.33          12.86          51.54
     1.285              -44.95          2.421          71.38          64.75          4.791         -8.104          140.9          2.254         -48.61          12.94          51.72
     1.326              -44.92            2.5          71.24          64.73          4.798           -8.1          140.3           2.42         -48.95          13.03          51.92
     1.366              -44.88          2.593          71.08           64.7          4.806         -8.094          139.6          2.615         -49.34          13.14          52.15
     1.406              -44.84          2.703          70.89          64.68          4.816         -8.088          138.9          2.845          -49.8          13.26          52.43
     1.446              -44.79          2.833          70.66          64.64          4.828          -8.08          137.9          3.118         -50.34          13.42          52.76
     1.486              -44.73          2.989          70.39           64.6          4.841         -8.071          136.8          3.445          -51.0           13.6          53.16
